<svg width="24" height="21" viewBox="0 0 24 21" fill="none" xmlns="http://www.w3.org/2000/svg">
<path fill-rule="evenodd" clip-rule="evenodd" d="M7.79708 8.9191C7.41835 8.9191 7.11133 8.64932 7.11133 8.31653L7.11133 4.46009C7.11133 1.99744 9.38328 0.00107338 12.1859 0.00107392C14.9885 0.00107355 17.2604 1.99744 17.2604 4.46009L17.2604 8.31653C17.2604 8.64932 16.9534 8.9191 16.5747 8.9191C16.1959 8.9191 15.8889 8.64932 15.8889 8.31653L15.8889 4.46009C15.8889 2.66302 14.231 1.20621 12.1859 1.20621C10.1407 1.20621 8.48282 2.66302 8.48282 4.46009L8.48283 8.31653C8.48283 8.64932 8.17581 8.9191 7.79708 8.9191Z" fill="#11006F"/>
<path fill-rule="evenodd" clip-rule="evenodd" d="M7.02578 5.6976H17.3451C18.3357 5.69758 19.1507 5.69756 19.7999 5.77987C20.4811 5.86623 21.079 6.05323 21.5745 6.49833C22.0699 6.94343 22.3105 7.50965 22.4552 8.16523C22.5931 8.7901 22.6608 9.58301 22.743 10.5469L23.3591 17.7644C23.4056 18.309 23.4467 18.7902 23.4249 19.1798C23.4014 19.6014 23.3004 20.034 22.9607 20.3945C22.621 20.7549 22.1878 20.8891 21.7594 20.947C21.3636 21.0005 20.869 21.0005 20.3092 21.0005H4.06161C3.50187 21.0005 3.00728 21.0005 2.61146 20.947C2.18308 20.8891 1.74984 20.7549 1.41016 20.3945C1.07047 20.034 0.969485 19.6014 0.945931 19.1798C0.924168 18.7902 0.965281 18.309 1.01181 17.7644L1.62785 10.5469C1.71009 9.58301 1.77775 8.7901 1.91569 8.16523C2.0604 7.50965 2.30092 6.94343 2.79638 6.49833C3.29184 6.05323 3.88976 5.86623 4.57093 5.77987C5.22018 5.69756 6.03513 5.69758 7.02578 5.6976ZM4.76134 7.21152C4.23949 7.27768 3.98124 7.39572 3.79759 7.5607C3.61395 7.72567 3.47202 7.96714 3.36115 8.46939C3.24582 8.99187 3.18471 9.69073 3.09724 10.7155L2.48941 17.8369C2.43764 18.4434 2.40688 18.8234 2.42239 19.1011C2.43641 19.352 2.4842 19.4022 2.49739 19.416L2.49827 19.4169L2.49915 19.4179C2.51218 19.4319 2.55939 19.4825 2.81433 19.517C3.09648 19.5552 3.48697 19.5568 4.11031 19.5568H20.2606C20.8839 19.5568 21.2744 19.5552 21.5565 19.517C21.8115 19.4825 21.8587 19.4319 21.8717 19.4179L21.8726 19.4169L21.8735 19.416C21.8867 19.4022 21.9345 19.352 21.9485 19.1011C21.964 18.8234 21.9332 18.4434 21.8815 17.8369L21.2736 10.7155C21.1862 9.69073 21.125 8.99187 21.0097 8.46939C20.8988 7.96714 20.7569 7.72567 20.5733 7.5607C20.3896 7.39572 20.1314 7.27768 19.6095 7.21152C19.0667 7.14269 18.3482 7.14127 17.295 7.14127H7.07582C6.02262 7.14127 5.30421 7.14269 4.76134 7.21152Z" fill="#11006F"/>
</svg>
