<svg width="44" height="33" viewBox="0 0 44 33" fill="none" xmlns="http://www.w3.org/2000/svg">
<path d="M9.26758 12.3899L16.3342 16.4832L23.3476 12.4166" stroke="#17191C" stroke-width="1.8" stroke-linecap="round" stroke-linejoin="round"/>
<path d="M16.334 23.7366V16.47" stroke="#17191C" stroke-width="1.8" stroke-linecap="round" stroke-linejoin="round"/>
<path d="M14.681 8.43001L10.4143 10.8033C9.45431 11.3367 8.6543 12.6833 8.6543 13.79V18.31C8.6543 19.4167 9.44097 20.7634 10.4143 21.2967L14.681 23.67C15.5877 24.1767 17.081 24.1767 18.001 23.67L22.2677 21.2967C23.2277 20.7634 24.0276 19.4167 24.0276 18.31V13.7767C24.0276 12.67 23.241 11.3233 22.2677 10.79L18.001 8.41668C17.081 7.91001 15.5877 7.91001 14.681 8.43001Z" stroke="#17191C" stroke-width="1.8" stroke-linecap="round" stroke-linejoin="round"/>
<path d="M29.6673 20.0435C29.6673 25.2035 25.494 29.3768 20.334 29.3768L21.734 27.0435" stroke="#17191C" stroke-width="1.8" stroke-linecap="round" stroke-linejoin="round"/>
<path d="M3 12.0435C3 6.88354 7.17333 2.71021 12.3333 2.71021L10.9333 5.04354" stroke="#17191C" stroke-width="1.8" stroke-linecap="round" stroke-linejoin="round"/>
<rect x="24.834" y="0.043457" width="19" height="11" rx="4" fill="#FCAF17"/>
<path d="M26.4069 2.69346L26.7469 3.87346L28.0669 3.50346V9.04346H29.4469V2.04346H28.2469L26.4069 2.69346ZM32.2441 4.59346L32.3341 3.33346H35.0241V2.04346H31.0541L30.7741 5.93346H32.8941C33.5641 5.93346 33.9741 6.31346 33.9741 6.88346C33.9741 7.47346 33.5641 7.83346 32.8541 7.83346C32.1841 7.83346 31.7641 7.55346 31.5941 6.99346L30.4141 7.68346C30.8041 8.67346 31.7241 9.18346 32.8541 9.18346C33.5541 9.18346 34.1441 8.98346 34.6241 8.57346C35.1141 8.16346 35.3541 7.60346 35.3541 6.88346C35.3541 6.16346 35.1241 5.60346 34.6641 5.20346C34.2041 4.79346 33.6341 4.59346 32.9641 4.59346H32.2441ZM40.3426 6.31346L37.3426 2.04346H36.2926V9.04346H37.6726V4.76346L40.6726 9.04346H41.7226V2.04346H40.3426V6.31346Z" fill="#17191C"/>
</svg>
