<svg width="33" height="33" viewBox="0 0 33 33" fill="none" xmlns="http://www.w3.org/2000/svg">
<path d="M20.6654 2.71021V16.0435C20.6654 17.5102 19.4654 18.7102 17.9987 18.7102H3.33203V10.2035C4.30536 11.3635 5.79873 12.0835 7.45207 12.0435C8.79873 12.0169 10.012 11.4969 10.9187 10.6302C11.332 10.2835 11.6787 9.84352 11.9454 9.36352C12.4254 8.55019 12.692 7.59017 12.6654 6.59017C12.6254 5.03017 11.9321 3.65687 10.8521 2.71021H20.6654Z" stroke="#17191C" stroke-width="1.8" stroke-linecap="round" stroke-linejoin="round"/>
<path d="M29.9987 18.7102V22.7102C29.9987 24.9235 28.212 26.7102 25.9987 26.7102H24.6654C24.6654 25.2435 23.4654 24.0435 21.9987 24.0435C20.532 24.0435 19.332 25.2435 19.332 26.7102H13.9987C13.9987 25.2435 12.7987 24.0435 11.332 24.0435C9.86536 24.0435 8.66536 25.2435 8.66536 26.7102H7.33203C5.1187 26.7102 3.33203 24.9235 3.33203 22.7102V18.7102H17.9987C19.4654 18.7102 20.6654 17.5102 20.6654 16.0435V6.71021H23.1187C24.0787 6.71021 24.9587 7.23022 25.4387 8.05688L27.7187 12.0435H25.9987C25.2654 12.0435 24.6654 12.6435 24.6654 13.3769V17.3769C24.6654 18.1102 25.2654 18.7102 25.9987 18.7102H29.9987Z" stroke="#17191C" stroke-width="1.8" stroke-linecap="round" stroke-linejoin="round"/>
<path d="M11.3327 29.3768C12.8054 29.3768 13.9993 28.1829 13.9993 26.7101C13.9993 25.2374 12.8054 24.0435 11.3327 24.0435C9.85992 24.0435 8.66602 25.2374 8.66602 26.7101C8.66602 28.1829 9.85992 29.3768 11.3327 29.3768Z" stroke="#17191C" stroke-width="1.8" stroke-linecap="round" stroke-linejoin="round"/>
<path d="M21.9987 29.3768C23.4715 29.3768 24.6654 28.1829 24.6654 26.7101C24.6654 25.2374 23.4715 24.0435 21.9987 24.0435C20.5259 24.0435 19.332 25.2374 19.332 26.7101C19.332 28.1829 20.5259 29.3768 21.9987 29.3768Z" stroke="#17191C" stroke-width="1.8" stroke-linecap="round" stroke-linejoin="round"/>
<path d="M29.9993 16.0435V18.7101H25.9993C25.266 18.7101 24.666 18.1101 24.666 17.3768V13.3768C24.666 12.6435 25.266 12.0435 25.9993 12.0435H27.7193L29.9993 16.0435Z" fill="#FCAF17" stroke="#17191C" stroke-width="1.8" stroke-linecap="round" stroke-linejoin="round"/>
<path d="M12.6662 6.59003C12.6929 7.59003 12.4263 8.55006 11.9463 9.36339C11.6796 9.84339 11.3329 10.2834 10.9196 10.6301C10.0129 11.4967 8.79961 12.0167 7.45295 12.0434C5.79961 12.0834 4.30624 11.3634 3.33291 10.2034C3.14624 10.0034 2.98625 9.77674 2.83958 9.55008C2.31958 8.76341 2.02624 7.8301 1.99958 6.8301C1.95958 5.1501 2.70623 3.61673 3.90623 2.61673C4.8129 1.87006 5.95954 1.4034 7.21288 1.37674C8.61288 1.35007 9.89293 1.85674 10.8529 2.71007C11.9329 3.65674 12.6262 5.03003 12.6662 6.59003Z" fill="#FCAF17" stroke="#17191C" stroke-width="1.8" stroke-miterlimit="10" stroke-linecap="round" stroke-linejoin="round"/>
<path d="M5.25391 6.75008L6.60059 8.03003L9.38721 5.33667" stroke="#17191C" stroke-width="1.8" stroke-linecap="round" stroke-linejoin="round"/>
</svg>
