<svg width="32" height="33" viewBox="0 0 32 33" fill="none" xmlns="http://www.w3.org/2000/svg">
<path d="M16.001 18.7102H17.3343C18.801 18.7102 20.001 17.5102 20.001 16.0435V2.71021H8.00098C6.00098 2.71021 4.25432 3.81686 3.34766 5.44352" stroke="#17191C" stroke-width="1.8" stroke-linecap="round" stroke-linejoin="round"/>
<path d="M2.66602 22.7102C2.66602 24.9235 4.45268 26.7102 6.66602 26.7102H7.99935C7.99935 25.2435 9.19935 24.0435 10.666 24.0435C12.1327 24.0435 13.3327 25.2435 13.3327 26.7102H18.666C18.666 25.2435 19.866 24.0435 21.3327 24.0435C22.7993 24.0435 23.9993 25.2435 23.9993 26.7102H25.3327C27.546 26.7102 29.3327 24.9235 29.3327 22.7102V18.7102H25.3327C24.5993 18.7102 23.9993 18.1102 23.9993 17.3769V13.3769C23.9993 12.6435 24.5993 12.0435 25.3327 12.0435H27.0527L24.7727 8.05688C24.2927 7.23022 23.4127 6.71021 22.4527 6.71021H19.9993V16.0435C19.9993 17.5102 18.7993 18.7102 17.3327 18.7102H15.9993" stroke="#17191C" stroke-width="1.8" stroke-linecap="round" stroke-linejoin="round"/>
<path d="M10.6667 29.3768C12.1394 29.3768 13.3333 28.1829 13.3333 26.7101C13.3333 25.2374 12.1394 24.0435 10.6667 24.0435C9.19391 24.0435 8 25.2374 8 26.7101C8 28.1829 9.19391 29.3768 10.6667 29.3768Z" stroke="#17191C" stroke-width="1.8" stroke-linecap="round" stroke-linejoin="round"/>
<path d="M21.3327 29.3768C22.8054 29.3768 23.9993 28.1829 23.9993 26.7101C23.9993 25.2374 22.8054 24.0435 21.3327 24.0435C19.8599 24.0435 18.666 25.2374 18.666 26.7101C18.666 28.1829 19.8599 29.3768 21.3327 29.3768Z" stroke="#17191C" stroke-width="1.8" stroke-linecap="round" stroke-linejoin="round"/>
<path d="M29.3333 16.0435V18.7101H25.3333C24.6 18.7101 24 18.1101 24 17.3768V13.3768C24 12.6435 24.6 12.0435 25.3333 12.0435H27.0533L29.3333 16.0435Z" fill="#FCAF17" stroke="#17191C" stroke-width="1.8" stroke-linecap="round" stroke-linejoin="round"/>
<path d="M2.66602 10.7102H10.666" stroke="#FCAF17" stroke-width="1.8" stroke-linecap="round" stroke-linejoin="round"/>
<path d="M2.66602 14.7102H7.99935" stroke="#FCAF17" stroke-width="1.8" stroke-linecap="round" stroke-linejoin="round"/>
<path d="M2.66602 18.7102H5.33268" stroke="#FCAF17" stroke-width="1.8" stroke-linecap="round" stroke-linejoin="round"/>
</svg>
